<svg width="90" height="90" viewBox="0 0 90 90" fill="none" xmlns="http://www.w3.org/2000/svg">
<circle cx="45" cy="45" r="45" fill="#1B2430"/>
<path d="M20.636 59.036V36.644C24.416 42.836 28.232 49.1 31.976 55.256H33.38C37.232 49.1 40.94 42.836 44.756 36.644V59.036H47.204V31.964H44.756L32.66 51.764L20.636 31.964H18.116V59.036H20.636ZM52.4583 59V50.864H60.2343C65.0583 50.864 69.5943 46.724 69.5943 41.396C69.5943 36.464 65.4543 32 60.2343 32H50.0463V34.448H60.2343C63.9063 34.448 67.2183 37.508 67.2183 41.396C67.2183 45.068 64.1583 48.452 60.2343 48.452H52.4583V46.616H50.0463V59H52.4583Z" fill="#E94560"/>
</svg>
